<svg xmlns="http://www.w3.org/2000/svg" width="96" height="96" viewBox="0 0 96 96" role="img" aria-labelledby="title desc">
  <title id="title">Kroma mark</title>
  <desc id="desc">Rounded-square Kroma icon with a geometric K in teal, steel blue, and a small brass accent.</desc>
  <defs>
    <linearGradient id="mark-stroke" x1="6" y1="8" x2="90" y2="92" gradientUnits="userSpaceOnUse">
      <stop offset="0" stop-color="#2DD4BF"/>
      <stop offset="0.58" stop-color="#6B9EFF"/>
      <stop offset="1" stop-color="#C8A24A"/>
    </linearGradient>
    <linearGradient id="stem" x1="32" y1="24" x2="32" y2="72" gradientUnits="userSpaceOnUse">
      <stop offset="0" stop-color="#2DD4BF"/>
      <stop offset="1" stop-color="#0F766E"/>
    </linearGradient>
    <linearGradient id="arm-top" x1="42" y1="26" x2="82" y2="50" gradientUnits="userSpaceOnUse">
      <stop offset="0" stop-color="#2DD4BF"/>
      <stop offset="1" stop-color="#6B9EFF"/>
    </linearGradient>
    <linearGradient id="arm-bottom" x1="42" y1="50" x2="82" y2="76" gradientUnits="userSpaceOnUse">
      <stop offset="0" stop-color="#0F766E"/>
      <stop offset="1" stop-color="#6B9EFF"/>
    </linearGradient>
    <linearGradient id="brass" x1="44" y1="49" x2="64" y2="64" gradientUnits="userSpaceOnUse">
      <stop offset="0" stop-color="#D6B45F"/>
      <stop offset="1" stop-color="#C8A24A"/>
    </linearGradient>
  </defs>

  <rect x="5" y="5" width="86" height="86" rx="22" fill="#11171B" stroke="url(#mark-stroke)" stroke-width="4"/>
  <rect x="12" y="12" width="72" height="72" rx="17" fill="none" stroke="#34434B" stroke-width="1" opacity="0.55"/>
  <rect x="28" y="24" width="14" height="48" rx="2.5" fill="url(#stem)"/>
  <path d="M42 48L65 24H82L53 54L42 48Z" fill="url(#arm-top)"/>
  <path d="M42 52L54 41L82 72H64L42 52Z" fill="url(#arm-bottom)"/>
  <path d="M48 50L61 62L52 65L42 54L48 50Z" fill="url(#brass)"/>
</svg>
